<svg xmlns="http://www.w3.org/2000/svg" width="170" height="170" viewBox="0 0 200 200">
  <g id="beer" transform="translate(-244.006 -16.114)">
    <path id="Trazado_16" data-name="Trazado 16" d="M402.6,66.934c23.1-8.876,31.429-27.541,33.419-50.409h7.983c-.2,27.988-13.015,48.134-38.643,59.065-8.39,3.578-17.584,12.94-27.985,1.635,17.388-8.587,19.873-25.1,22.3-41.62a43.6,43.6,0,0,0,.292-4.961c.1-3.162.433-6.4,4.673-5.97,3.527.358,3.4,3.392,3.48,6.107.357,12.138-2.582,23.575-7.257,34.654q-.18,1.217-.365,2.431Z" fill="#cd1717"/>
    <path id="Trazado_17" data-name="Trazado 17" d="M287.548,65.437c-4.518-10.8-7.549-21.912-7.228-33.742.079-2.906-.66-6.675,3.56-6.99,5.055-.376,4.36,3.855,4.6,7.062.6,7.952,1.608,15.876,4.222,23.415,3.211,9.264,7.984,17.5,18.078,21.492-3.882,6.037-8.115,6.337-14.349,4.477-26.342-7.859-44.23-23.96-52.019-50.655,0-2,.323-4.056-.058-5.976-1.361-6.862,1.21-9.505,8.042-8,1.96,22.889,10.333,41.527,33.417,50.415l2.1.926Z" fill="#cd1717"/>
    <path id="Trazado_18" data-name="Trazado 18" d="M344.019,76.307c38.042-3.951,63.387,44.8,46.72,72.161-10.269,16.855-17.373,35.557-22.651,54.816-2.594,9.464-10.465,12.976-25.2,12.825-12.975-.133-20.237-4-22.683-13.432-4.934-19.033-11.912-37.439-22.243-53.9C280.6,121.127,306.752,72.432,344.019,76.307Zm.216,105.207c-4.061,1.851-11.592-2.932-11.721,5.138-.1,6.37,3.969,10.091,11.726,10.106,7.8.016,11.767-3.781,11.662-10.137C355.766,178.487,348.222,183.425,344.235,181.514Zm-24.829-42.043c4.153-.431,6.538-2.78,5.9-6.6-.812-4.869-3.483-8.645-9.131-8.892-4.04-.177-6.374,1.631-6.18,5.874C310.273,135.919,314.294,138.345,319.406,139.471Zm50.054-.178c5.865-1.073,9.217-4.261,9.175-10.133-.031-4.267-2.785-5.7-6.709-5.2-5.464.706-8.148,4.208-8.439,9.385C363.261,137.375,365.752,139.26,369.46,139.293Z" fill="#cd1717"/>
    <path id="Trazado_19" data-name="Trazado 19" d="M284.451,124.244c-12.143-4.572-19.784-12.657-26.121-22.2-3.915-5.9-2.734-10.563,3.684-13.8,10.387-5.231,21.01-5.17,31.772-1.405,3.649,1.277,5.221,2.828,2.4,7.026A73.814,73.814,0,0,0,284.451,124.244Z" fill="#cd1717"/>
    <path id="Trazado_20" data-name="Trazado 20" d="M404.452,124.194c-2.78-11.265-6.262-21.947-12.752-31.252-2.423-3.474-.616-4.577,2.108-5.685a38.3,38.3,0,0,1,32.624,1.113c6.545,3.2,7.473,7.9,3.607,13.756C423.717,111.695,415.929,119.6,404.452,124.194Z" fill="#cd1717"/>
  </g>
</svg>
