<svg xmlns="http://www.w3.org/2000/svg" width="170" height="170" viewBox="0 0 200 200">
  <path id="fire" d="M221.994,181.534c-9.652,9.679-19.9,19.56-37.3,20.389-5.449,6.688-13.979,7.216-22.635,7.467,17.155-9.076,27.709-21.068,25.094-38.491-2.055-13.9-12.8-23.382-25.9-31.326-12.3-7.467-24.378-15.035-31.289-26.977-8.375,8.07-9.185,16.468-6.289,25.418,1.4,4.425,2.957,8.85,4.172,13.3,1.089,3.972.373,7.718-4.826,9.478-4.39,1.509-7.783-.126-10.772-2.992-1.681-1.634-1.4-5.053-5.76-4.7-12.92,7.417-13.761,17.85-11.239,29.088,2.428,10.862,11.239,18.505,20.361,25.971-9.465.956-16.158-4.625-24.315-6.712-4.421-1.283-8.1-3.269-9.776-7.04-25.4-11.59-34.185-31.427-38.606-52.746-4.2-20.189-2.646-40.177,11.738-58.077,3.611-4.5,7.658-9,15.224-10.861,3.269,2.564,1.588,6.084,2.273,9.051,2.615,11.162,11.114,16.92,24.844,16.819,13.637-.125,20.517-7.09,22.292-17.347,2.4-13.8-.218-27.606-1.059-41.383-.809-12.47,2.927-23.1,18.182-30.472,3.3,18.178,18.961,29.517,32.473,41.836,20.641,18.781,36.239,38.592,29.11,65.569-1.962,7.416,4.919,8.045,11.986,5.48,10.741-3.9,16.1-11.389,19.552-20.289C247.274,120.666,243.787,159.711,221.994,181.534Z" transform="translate(-40.875 -9.39)" fill="#cd1717"/>
</svg>
