<svg xmlns="http://www.w3.org/2000/svg" width="514" height="171" viewBox="0 0 514 171">
  <g id="Grupo_1" data-name="Grupo 1" transform="translate(-155.5 -647.5)">
    <g id="bull">
      <rect id="Rectángulo_8" data-name="Rectángulo 8" width="503" height="160" rx="31.036" transform="translate(161 653)" fill="#202020" stroke="#fff" stroke-miterlimit="10" stroke-width="11"/>
      <g id="bull-2" data-name="bull">
        <path id="Trazado_2" data-name="Trazado 2" d="M518.112,741.055h57.423c-6.8,6.735-8.266,15.089-9.545,23.419-.55,3.586.634,7.665-8.009,5.584-4.428-1.069-9.652,1.67-8.277,6.23.813,2.694-.161,2.814-2.678,2.668-1.739-.1-4.01.8-3.245-2.39,1.3-5.376-4.189-7.64-9.73-6.445-6.3,1.354-5.863-1.056-6.186-3.952C526.867,757.118,524.656,748.46,518.112,741.055Z" fill="#c1272d"/>
        <path id="Trazado_3" data-name="Trazado 3" d="M513.277,735.488a4.131,4.131,0,0,0-.061-3.158c4.815.382,6.993-1.741,8.06-6.592.746-3.428-4.434-7.365,1.752-10.331,6.536-3.141,13.727-3.149,20.613-1.94,6.338,1.121,12.143-.494,18.2-.549,10.268-.1,14.252,2.712,13.589,10.418-.441,5.05,2.56,9.623,7.557,12.152Z" fill="#c1272d"/>
        <path id="Trazado_4" data-name="Trazado 4" d="M512.687,730.691l.41-.282c-11.409,4.989-20.8,3.128-29.515-5.9-6.7-6.942-8.03-15.212-9.886-23.341-.53-2.322-.8-4.681-1.408-6.99-2.882-10.985-2.908-10.981-18.941-18.427,10.289-1.862,20.715,1.343,25.277,8.582,3.873,6.143,6.524,12.724,9.883,19.06,4.352,8.212,10.842,14.5,24.031,13.768,4.3-.24,4.45,1.883,4.747,3.963C517.816,724.842,516.486,728.128,512.687,730.691Z" fill="#c1272d"/>
        <path id="Trazado_5" data-name="Trazado 5" d="M642,677.549c-14.556,3.025-16.448,12.082-18.344,20.963-1.5,7.006-2.41,14.081-5.8,20.78-3.265,6.455-8.642,11.529-16.994,14.459-9.473,3.323-19.119-.179-20.909-7.429-1.089-4.408-1.35-7.858,7.241-7.653,9.509.227,15.533-4.481,19.114-10.725,3.972-6.926,6.953-14.189,11.138-21.034C622.686,678.341,630.01,675.618,642,677.549Z" fill="#c1272d"/>
      </g>
    </g>
    <g id="Capa_4" data-name="Capa 4">
      <text id="Fire-Bull" transform="translate(177.35 682.629)" fill="#fff" font-size="89" font-family="BodoniMTPosterCompressed, Bodoni MT Poster" letter-spacing="0.054em"><tspan x="26.995" y="83">Fire-Bull</tspan></text>
    </g>
  </g>
</svg>
