<svg xmlns="http://www.w3.org/2000/svg" width="150" height="170" viewBox="0 0 200 200">
  <g id="hammer" transform="translate(-101.91 -246.538)">
    <path id="Trazado_21" data-name="Trazado 21" d="M166.205,370.609c-13.567,13.695-26.837,27.765-40,41.947-10.425,11.235-10.443,16.61-.909,26.9,9.09,9.811,13.8,9.571,23.374-1.633,11.6-13.568,23.348-27,34.457-41.058,3.849-4.87,6.874-7.192,10.566-6.293-7.8-9.935-15.708-19.742-23.321-29.881C171.217,363.965,169.683,367.1,166.205,370.609Z" fill="#cd1717"/>
    <path id="Trazado_22" data-name="Trazado 22" d="M192.189,332.759c-7.659-7.937-15.457-15.71-23.269-23.461-4.266-4.233-4.3-8.113-.086-12.539,5.44-5.709,10.617-11.732,15.844-17.689,2.663-3.034,5.36-6.316,3.115-10.947-2.056-4.241-5.125-7.147-10.178-6.834a61.514,61.514,0,0,1-7.441,1.269c-23.546,1.292-39.447,16.642-54.591,34.839-18.132,21.789-18.689,21.366,1.088,41.547.276.281.543.574.8.88,4.108,4.97,7.921,4.608,12.568.279,15.741-14.663,15.869-14.549,30.111,2.194,3.08,3.622,5.734,7.707,8.909,11.215a13.113,13.113,0,0,1,3.243,5.474c7.613,10.139,15.525,19.945,23.321,29.881,2.131.519,4.484,2.1,7.349,4.91,13.813,13.531,25.117,29.654,38.733,43.349,7.907,7.953,13.86,7.915,21.084-.071,9.267-10.243,10.154-16.081,2.209-25.358-9.546-11.148-19.692-21.66-29.233-32.813-10.419-12.178-15.989-16.4-16.478-20.47-7.175-7.465-14.182-15.118-21.137-22.829C196.224,335.849,194.271,334.916,192.189,332.759Z" fill="#cd1717"/>
    <path id="Trazado_23" data-name="Trazado 23" d="M299.005,310.964c-12.526-15.933-23.445-33.379-39.107-46.2-29.311-24-17.972-25.6-45.2,3.033-5.383,5.659-5.882,9.876-.987,16.724,15.932,22.286,15.66,22.528-3.044,42.594-1.347,1.445-2.758,2.822-4.029,4.344-1.559,1.868-3.092,2.845-4.644,3.058,6.955,7.71,13.962,15.363,21.136,22.829-.54-4.5,5.118-8.824,17.336-23.5,4.921-5.913,8.679-5.635,14.177-.891,20.866,18,20.988,17.829,39.912-3.512,1.314-1.481,2.563-3.041,3.94-4.445C302.924,320.481,302.993,316.037,299.005,310.964Z" fill="#cd1717"/>
  </g>
</svg>
